<svg xmlns="http://www.w3.org/2000/svg" version="1.1" xmlns:xlink="http://www.w3.org/1999/xlink" width="512" height="512"><svg xmlns="http://www.w3.org/2000/svg" version="1.1" xmlns:xlink="http://www.w3.org/1999/xlink" width="512" height="512"><svg width="512" height="512" viewBox="0 0 135.46666 135.46667" version="1.1" id="svg1" inkscape:version="1.4.3 (0d15f75, 2025-12-25)" sodipodi:docname="favicon.svg" xmlns:inkscape="http://www.inkscape.org/namespaces/inkscape" xmlns:sodipodi="http://sodipodi.sourceforge.net/DTD/sodipodi-0.dtd" xmlns="http://www.w3.org/2000/svg" xmlns:svg="http://www.w3.org/2000/svg">
  <sodipodi:namedview id="namedview1" pagecolor="#505050" bordercolor="#eeeeee" borderopacity="1" inkscape:showpageshadow="0" inkscape:pageopacity="0" inkscape:pagecheckerboard="0" inkscape:deskcolor="#505050" inkscape:document-units="px" inkscape:zoom="0.74208053" inkscape:cx="397.53098" inkscape:cy="368.55838" inkscape:window-width="1920" inkscape:window-height="1051" inkscape:window-x="-9" inkscape:window-y="-9" inkscape:window-maximized="1" inkscape:current-layer="layer1"></sodipodi:namedview>
  <defs id="defs1"></defs>
  <g inkscape:label="Layer 1" inkscape:groupmode="layer" id="layer1">
    <path d="m 24.553288,75.141677 c 0,5.29165 2.010827,9.207471 6.773312,9.207471 2.010827,0 3.598322,-0.317499 4.868318,-0.740831 l 0.317499,0.423332 c -3.704155,12.276628 -9.52497,21.484101 -14.393288,27.199081 l 0.634998,0.84666 c 1.375829,-1.05833 2.857491,-2.53999 4.974151,-5.29165 1.164163,-1.48166 5.397483,-8.995801 6.244147,-9.524966 1.269996,-0.740831 17.779944,-1.05833 24.976588,-1.05833 10.159968,0 20.319936,0.317499 30.479904,0.317499 3.17499,0 6.34998,-0.211666 9.52497,-0.211666 4.762483,0 9.524973,0.423332 14.181623,0.529165 l 0.21166,-1.587495 -9.84246,-1.164163 c -2.2225,-1.693328 -2.8575,-42.121534 -2.8575,-45.931522 0,-9.52497 0.42334,-17.250779 0.635,-19.04994 0.21167,-1.587495 0.635,-2.328326 1.79916,-2.539992 l 7.30248,-1.587495 c 0,-0.740831 -0.10583,-1.05833 -0.52916,-1.587495 -8.78414,2.539992 -27.72825,2.751658 -51.646508,2.751658 -9.313304,0 -16.509948,-0.423332 -22.013264,-0.952497 -5.609149,-0.529165 -9.52497,-1.269996 -12.488294,-1.799161 l -0.423332,1.05833 0.211666,0.529165 c 10.265801,1.904994 23.177427,2.328326 33.019896,2.963324 C 49.31821,33.760974 41.169069,41.063451 35.242421,49.212592 29.20994,57.573399 24.553288,66.251705 24.553288,75.141677 Z m 19.896604,-9.948302 c 5.503316,-2.222493 18.097443,-3.280823 20.10827,-3.492489 0,0.740831 -1.164163,0.952497 -1.164163,2.857491 0,1.164163 1.587495,2.539992 3.704155,2.539992 2.645825,0 3.492489,-1.799161 3.492489,-3.17499 0,-0.846664 -1.05833,-1.375829 -0.952497,-2.222493 1.904994,-0.211666 7.937475,-0.634998 9.948302,-0.634998 2.751658,0 3.492489,1.164163 3.492489,3.492489 v 13.334958 c 0,3.069157 -0.740831,14.81662 -2.645825,15.769117 -1.587495,0.846664 -31.7499,1.05833 -34.395725,1.05833 L 34.607423,94.614949 c 0.529165,-1.904994 3.809988,-9.948302 4.339153,-11.64163 z m 19.790771,-8.149141 -5.926648,0.105833 c -4.656652,0.105833 -7.937475,-0.211666 -8.889972,-0.529165 -0.846664,-0.317499 -1.269996,-0.846664 -1.269996,-1.904994 0,-6.34998 8.043308,-24.129924 12.064962,-26.352417 1.481662,-0.740831 11.324131,-0.740831 14.075789,-0.740831 3.809988,0 7.090811,0 7.619976,1.799161 1.375829,4.550819 1.481662,14.181622 1.481662,17.144946 0,7.937475 -0.740831,8.149141 -2.222493,8.572473 -3.17499,0.740831 -8.889972,1.587495 -12.170795,1.587495 L 68.36815,56.091737 c 1.164163,-0.846664 1.799161,-1.375829 1.799161,-2.11666 0,-0.634998 -0.634998,-3.17499 -3.386656,-3.17499 -1.799161,0 -3.280823,1.375829 -3.280823,2.645825 0,1.05833 0.105833,1.904994 0.952497,2.963324 z m 34.501558,-29.63324 c 0.529165,0 0.952497,0.529165 0.952497,1.164163 0,1.269996 -0.846664,6.773312 -0.846664,21.589932 0,24.764922 1.799156,39.369876 1.799156,42.650699 0,0.529165 -0.31749,1.164163 -1.164158,1.164163 -2.963324,0 -3.386656,0 -3.386656,-1.587495 -0.105833,-2.857491 -0.952497,-37.888214 -0.952497,-49.847343 0,-2.645825 0.317499,-14.287455 0.740831,-14.710787 z" id="text1" style="font-size: 105.833px; font-family: &quot;Goudy Text MT&quot;; fill: rgb(194, 31, 31); stroke-width: 0.357; --darkreader-inline-fill: var(--darkreader-text-c21f1f, #ae3131);" aria-label="A" data-darkreader-inline-fill=""></path>
    <text xml:space="preserve" style="font-style: normal; font-variant: normal; font-weight: normal; font-stretch: normal; font-size: 105.833px; font-family: &quot;Goudy Text MT&quot;; writing-mode: lr-tb; direction: ltr; fill: rgb(194, 31, 31); fill-opacity: 1; stroke: none; stroke-width: 0.357; --darkreader-inline-fill: var(--darkreader-text-c21f1f, #ae3131); --darkreader-inline-stroke: none;" x="197.16806" y="84.500595" id="text2" data-darkreader-inline-fill="" data-darkreader-inline-stroke=""><tspan sodipodi:role="line" id="tspan1" style="stroke-width:0.357" x="197.16806" y="84.500595"></tspan></text>
  </g>
</svg></svg><style>@media (prefers-color-scheme: light) { :root { filter: none; } }
@media (prefers-color-scheme: dark) { :root { filter: none; } }
</style></svg>